<svg xmlns="http://www.w3.org/2000/svg" xmlns:xlink="http://www.w3.org/1999/xlink" width="375" height="812" viewBox="0 0 375 812">
  <defs>
    <filter id="Rectangle_7" x="18.996" y="420" width="337" height="86" filterUnits="userSpaceOnUse">
      <feOffset dy="6" input="SourceAlpha"/>
      <feGaussianBlur stdDeviation="5" result="blur"/>
      <feFlood flood-color="#13ae7a" flood-opacity="0.322"/>
      <feComposite operator="in" in2="blur"/>
      <feComposite in="SourceGraphic"/>
    </filter>
    <linearGradient id="linear-gradient" x1="1" x2="0" y2="1" gradientUnits="objectBoundingBox">
      <stop offset="0" stop-color="#32c5ff" stop-opacity="0.071"/>
      <stop offset="0.513" stop-color="#b620e0" stop-opacity="0.071"/>
      <stop offset="1" stop-color="#f7b500" stop-opacity="0.071"/>
    </linearGradient>
    <clipPath id="clip-path">
      <circle id="Mask" cx="58" cy="58" r="58" transform="translate(0.29 0.216)" fill="#fff" stroke="#0dac77" stroke-miterlimit="10" stroke-width="28"/>
    </clipPath>
    <linearGradient id="linear-gradient-2" x1="4.267" y1="-15.251" x2="5.267" y2="-15.251" gradientUnits="objectBoundingBox">
      <stop offset="0" stop-color="#13ae7a"/>
      <stop offset="0.512" stop-color="#33b887"/>
      <stop offset="0.749" stop-color="#44be8f"/>
    </linearGradient>
    <filter id="Rectangle_17456" x="115.132" y="136.918" width="146.735" height="143.164" filterUnits="userSpaceOnUse">
      <feOffset dy="15" input="SourceAlpha"/>
      <feGaussianBlur stdDeviation="15" result="blur-2"/>
      <feFlood flood-opacity="0.161"/>
      <feComposite operator="in" in2="blur-2"/>
      <feComposite in="SourceGraphic"/>
    </filter>
    <linearGradient id="linear-gradient-3" x1="2.629" y1="-10.61" x2="3.215" y2="-10.829" gradientUnits="objectBoundingBox">
      <stop offset="0" stop-color="#0dac77"/>
      <stop offset="1" stop-color="#48bf91"/>
    </linearGradient>
    <filter id="Rectangle_17457" x="170.849" y="183.905" width="36.747" height="31.989" filterUnits="userSpaceOnUse">
      <feOffset dy="7" input="SourceAlpha"/>
      <feGaussianBlur stdDeviation="2.5" result="blur-3"/>
      <feFlood flood-opacity="0.18"/>
      <feComposite operator="in" in2="blur-3"/>
      <feComposite in="SourceGraphic"/>
    </filter>
    <filter id="Rectangle_17458" x="166.396" y="179.688" width="33.331" height="29.731" filterUnits="userSpaceOnUse">
      <feOffset dy="7" input="SourceAlpha"/>
      <feGaussianBlur stdDeviation="2.5" result="blur-4"/>
      <feFlood flood-opacity="0.18"/>
      <feComposite operator="in" in2="blur-4"/>
      <feComposite in="SourceGraphic"/>
    </filter>
    <filter id="Rectangle_17459" x="175.599" y="197.085" width="27.172" height="25.612" filterUnits="userSpaceOnUse">
      <feOffset dy="7" input="SourceAlpha"/>
      <feGaussianBlur stdDeviation="2.5" result="blur-5"/>
      <feFlood flood-opacity="0.18"/>
      <feComposite operator="in" in2="blur-5"/>
      <feComposite in="SourceGraphic"/>
    </filter>
    <clipPath id="clip-OTP_page_1">
      <rect width="375" height="812"/>
    </clipPath>
  </defs>
  <g id="OTP_page_1" data-name="OTP page 1" clip-path="url(#clip-OTP_page_1)">
    <rect width="375" height="812" fill="#fff"/>
    <g id="Status_bar" data-name="Status bar" transform="translate(21.009 14.833)">
      <g id="time" transform="translate(-26.018 -15.833)">
        <path id="Path_2707" data-name="Path 2707" d="M29.111,27.2a3.131,3.131,0,0,1-1.975-.63,2.627,2.627,0,0,1-1-1.673H27.64a1.394,1.394,0,0,0,.542.759,1.59,1.59,0,0,0,.941.278,1.63,1.63,0,0,0,1.447-.817,4.212,4.212,0,0,0,.521-2.27h-.1a2.172,2.172,0,0,1-.873.934,2.592,2.592,0,0,1-1.319.331,2.687,2.687,0,0,1-1.995-.8,2.748,2.748,0,0,1-.788-2.015,2.813,2.813,0,0,1,.882-2.136,3.425,3.425,0,0,1,3.9-.407A3.063,3.063,0,0,1,31.941,20a5.393,5.393,0,0,1,.6,2.672,5.4,5.4,0,0,1-.909,3.331A2.982,2.982,0,0,1,29.111,27.2ZM27.968,22.45a1.624,1.624,0,0,0,1.2.466,1.65,1.65,0,0,0,1.2-.463,1.567,1.567,0,0,0,.474-1.172,1.643,1.643,0,0,0-.48-1.2,1.684,1.684,0,0,0-2.391,2.37Z" fill="#4a4b4d"/>
        <path id="Path_2708" data-name="Path 2708" d="M34.255,20.777a.95.95,0,0,1,.27-.7.969.969,0,0,1,.715-.269.97.97,0,1,1,0,1.939.969.969,0,0,1-.715-.269A.943.943,0,0,1,34.255,20.777Zm0,4.418a.943.943,0,0,1,.27-.7.965.965,0,0,1,.715-.269.97.97,0,1,1,0,1.939.966.966,0,0,1-.715-.27A.949.949,0,0,1,34.255,25.195Z" fill="#4a4b4d"/>
        <path id="Path_2709" data-name="Path 2709" d="M42.06,27V25.424H37.929V24.076q1.032-1.9,3.446-5.531h2.132v5.6H44.65v1.278H43.507V27Zm-2.73-2.906v.088h2.753V19.775H42Q40.63,21.8,39.33,24.094Z" fill="#4a4b4d"/>
        <path id="Path_2710" data-name="Path 2710" d="M48.113,27V20.068h-.1l-2.1,1.477V20.092l2.209-1.547h1.506V27Z" fill="#4a4b4d"/>
        <path id="Path_2711" data-name="Path 2711" d="M60.839,27l-.714-2.162H57.013L56.287,27h-1.53l3-8.455h1.7L62.462,27Zm-2.314-6.844-1.16,3.487h2.408l-1.148-3.487Z" fill="#4a4b4d"/>
        <path id="Path_2712" data-name="Path 2712" d="M65.322,27H63.916V18.545h1.769L68.228,24.7h.105l2.543-6.158h1.77V27H71.24V21.053h-.082L68.82,26.672H67.742L65.4,21.053h-.082Z" fill="#4a4b4d"/>
      </g>
      <g id="icons" transform="translate(-26.018 -15.833)">
        <g id="Group_864" data-name="Group 864">
          <g id="Group_863" data-name="Group 863">
            <path id="Path_2713" data-name="Path 2713" d="M325.253,24.428a.306.306,0,0,0-.009-.444,3.32,3.32,0,0,0-4.288,0,.3.3,0,0,0-.1.219.305.305,0,0,0,.09.225l1.939,1.956a.3.3,0,0,0,.429,0Zm-2.153-2.7a4.77,4.77,0,0,1,3.2,1.232.3.3,0,0,0,.419,0l1.121-1.133a.311.311,0,0,0-.005-.445,6.946,6.946,0,0,0-9.463,0,.309.309,0,0,0-.1.221.312.312,0,0,0,.091.224l1.12,1.133a.3.3,0,0,0,.421,0A4.765,4.765,0,0,1,323.1,21.725Zm0-3.682a8.382,8.382,0,0,1,5.776,2.307.3.3,0,0,0,.421,0l1.121-1.132a.307.307,0,0,0,.091-.222.3.3,0,0,0-.094-.22,10.573,10.573,0,0,0-14.632,0,.308.308,0,0,0-.094.22.313.313,0,0,0,.091.222l1.123,1.132a.3.3,0,0,0,.42,0A8.38,8.38,0,0,1,323.1,18.043Z" fill="#4a4b4d"/>
          </g>
        </g>
        <g id="Group_866" data-name="Group 866">
          <g id="Group_865" data-name="Group 865">
            <path id="Path_2714" data-name="Path 2714" d="M308.87,16.159h.97a.97.97,0,0,1,.971.97v8.409a.969.969,0,0,1-.971.97h-.97a.97.97,0,0,1-.97-.97V17.129A.97.97,0,0,1,308.87,16.159Zm-4.527,2.264h.97a.97.97,0,0,1,.971.97v6.145a.97.97,0,0,1-.971.97h-.97a.968.968,0,0,1-.97-.97V19.393A.969.969,0,0,1,304.343,18.423Zm-4.528,2.264h.971a.971.971,0,0,1,.97.97v3.881a.97.97,0,0,1-.97.97h-.971a.969.969,0,0,1-.97-.97V21.657A.97.97,0,0,1,299.815,20.687Zm-4.529,1.941h.97a.97.97,0,0,1,.97.97v1.94a.969.969,0,0,1-.97.97h-.97a.97.97,0,0,1-.971-.97V23.6A.971.971,0,0,1,295.286,22.628Z" fill="#4a4b4d"/>
          </g>
        </g>
        <g id="Group_869" data-name="Group 869">
          <g id="Group_868" data-name="Group 868">
            <g id="Group_867" data-name="Group 867">
              <path id="Path_2715" data-name="Path 2715" d="M354.154,16.806a1.618,1.618,0,0,1,1.616,1.617v5.822a1.618,1.618,0,0,1-1.616,1.617H337.98a1.618,1.618,0,0,1-1.616-1.617V18.423a1.618,1.618,0,0,1,1.616-1.617h16.174m0-.971H337.98a2.587,2.587,0,0,0-2.586,2.588v5.822a2.587,2.587,0,0,0,2.586,2.588h16.174a2.587,2.587,0,0,0,2.586-2.588V18.423a2.587,2.587,0,0,0-2.586-2.588Z" fill="#4a4b4d"/>
            </g>
            <path id="Path_2716" data-name="Path 2716" d="M357.711,19.393v3.882a2.106,2.106,0,0,0,0-3.882" fill="#4a4b4d"/>
            <path id="Rectangle_179" data-name="Rectangle 179" d="M1.295,0H16.172a1.294,1.294,0,0,1,1.294,1.294V5.822a1.295,1.295,0,0,1-1.295,1.295H1.295A1.295,1.295,0,0,1,0,5.822V1.295A1.295,1.295,0,0,1,1.295,0Z" transform="translate(337.334 17.776)" fill="#4a4b4d"/>
          </g>
        </g>
      </g>
    </g>
    <g id="Group_9217" data-name="Group 9217" transform="translate(128 795)">
      <rect id="Rectangle_183" data-name="Rectangle 183" width="119" height="5" rx="2.5" fill="#4a4b4d"/>
    </g>
    <text id="OTP" transform="translate(87.004 343.583)" fill="#0dac77" font-size="18" font-family="SegoeUI, Segoe UI"><tspan x="-16.137" y="0">OTP</tspan></text>
    <g id="Path_10594" data-name="Path 10594" transform="translate(34.004 355.583)" fill="none">
      <path d="M28,0H279a28,28,0,0,1,0,56H28A28,28,0,0,1,28,0Z" stroke="none"/>
      <path d="M 28 1 C 24.35458374023438 1 20.8187255859375 1.713729858398438 17.49069213867188 3.121383666992188 C 14.27566528320312 4.481231689453125 11.38809204101562 6.428153991699219 8.908111572265625 8.908115386962891 C 6.42816162109375 11.38807678222656 4.481231689453125 14.27565383911133 3.12139892578125 17.49069213867188 C 1.7137451171875 20.81872940063477 1 24.35457611083984 1 28 C 1 31.64542388916016 1.7137451171875 35.18126678466797 3.12139892578125 38.50930786132812 C 4.481231689453125 41.72434616088867 6.42816162109375 44.61192321777344 8.908111572265625 47.09188461303711 C 11.38809204101562 49.57184600830078 14.27566528320312 51.51876831054688 17.49069213867188 52.87861633300781 C 20.8187255859375 54.28627014160156 24.35458374023438 55 28 55 L 279 55 C 282.6454162597656 55 286.1812744140625 54.28627014160156 289.5093078613281 52.87861633300781 C 292.7243347167969 51.51876831054688 295.6119384765625 49.57184600830078 298.0918884277344 47.09188461303711 C 300.5718383789062 44.61192321777344 302.5187683105469 41.72434616088867 303.8786010742188 38.50930786132812 C 305.2862548828125 35.18126678466797 306 31.64542388916016 306 28 C 306 24.35457611083984 305.2862548828125 20.81872940063477 303.8786010742188 17.49069213867188 C 302.5187683105469 14.27565383911133 300.5718383789062 11.38807678222656 298.0918884277344 8.908115386962891 C 295.6119384765625 6.428153991699219 292.7243347167969 4.481231689453125 289.5093078613281 3.121383666992188 C 286.1812744140625 1.713729858398438 282.6454162597656 1 279 1 L 28 1 M 28 0 L 279 0 C 294.4639892578125 0 307 12.53603744506836 307 28 C 307 43.46396255493164 294.4639892578125 56 279 56 L 28 56 C 12.5360107421875 56 0 43.46396255493164 0 28 C 0 12.53603744506836 12.5360107421875 0 28 0 Z" stroke="none" fill="#12ad79"/>
    </g>
    <text id="Number" transform="translate(68.004 388.583)" fill="#b6b7b7" font-size="14" font-family="SegoeUI, Segoe UI"><tspan x="0" y="0">Number</tspan></text>
    <g transform="matrix(1, 0, 0, 1, 0, 0)" filter="url(#Rectangle_7)">
      <rect id="Rectangle_7-2" data-name="Rectangle 7" width="307" height="56" rx="28" transform="translate(34 429)" fill="#0dac77"/>
    </g>
    <text id="Next" transform="translate(187.996 463)" fill="#fff" font-size="16" font-family="SegoeUI, Segoe UI"><tspan x="-16.551" y="0">Next</tspan></text>
    <circle id="Ellipse_121" data-name="Ellipse 121" cx="1.5" cy="1.5" r="1.5" transform="translate(107.996 328)" fill="#ff464b"/>
    <g id="Group_9325" data-name="Group 9325">
      <text id="Didn_t_Receive_Click_Here" data-name="Didn&apos;t Receive? Click Here" transform="translate(187.5 526)" fill="#4a4b4d" font-size="14" font-family="SegoeUI, Segoe UI"><tspan x="-82.134" y="0">Didn&apos;t Receive?</tspan><tspan y="0" fill="#516091"> </tspan><tspan y="0" fill="#0dac77" font-family="SegoeUI-Bold, Segoe UI" font-weight="700">Click Here</tspan></text>
    </g>
    <g id="Group_9036" data-name="Group 9036" transform="translate(-4765.103 -1329.656)">
      <circle id="Oval" cx="87.5" cy="87.5" r="87.5" transform="translate(4683.103 2051.656)" fill="url(#linear-gradient)"/>
    </g>
    <g id="Group_9038" data-name="Group 9038" transform="translate(1)">
      <g id="Group_9032" data-name="Group 9032" transform="translate(-4955.583 -830.583)">
        <path id="Oval-2" data-name="Oval" d="M90,0A90,90,0,1,1,0,90,90,90,0,0,1,90,0Z" transform="translate(5052.583 936.583)" fill="none" stroke="#6cd689" stroke-width="1"/>
        <g id="_001_Depositphotos_16303877_original" data-name="001_Depositphotos_16303877_original" transform="translate(5084.293 968.367)">
          <circle id="Mask-2" data-name="Mask" cx="58" cy="58" r="58" transform="translate(0.29 0.216)" fill="#fff" stroke="#0dac77" stroke-miterlimit="10" stroke-width="28"/>
        </g>
      </g>
      <g id="Group_9034" data-name="Group 9034" transform="translate(82.904 -84.225)">
        <g transform="matrix(1, 0, 0, 1, -83.9, 84.23)" filter="url(#Rectangle_17456)">
          <rect id="Rectangle_17456-2" data-name="Rectangle 17456" width="44.951" height="36.98" rx="1.405" transform="translate(160.13 187) rotate(-26.53)" fill="url(#linear-gradient-2)"/>
        </g>
        <g id="Group_8569" data-name="Group 8569" transform="translate(82.688 255.443)">
          <path id="Path_10422" data-name="Path 10422" d="M103.571,287.717a1.516,1.516,0,0,1,.222-.151" transform="translate(-77.577 -248.635)" fill="none"/>
          <path id="Path_10423" data-name="Path 10423" d="M124.031,282.264s-5.353,3.867-5.448,3.949a1.815,1.815,0,0,0-.681,1.383c.006.561.072,3.368.132,5.815a.883.883,0,0,0,.006.113c-.014,1.931-.02,3.573-.02,3.573s-7.86-3.186-8.806-3.556a1.717,1.717,0,0,0-1.49.156l-.091.058-.116.083-.014.009-5.08,3.463a3.18,3.18,0,0,1-4.428-.84l-14.906-21.9a3.2,3.2,0,0,1,.089-3.723,3.148,3.148,0,0,1,.75-.716l3.911-2.665,17.95-12.237a3.2,3.2,0,0,1,1.049-.466,3.229,3.229,0,0,1,2.222,1.306l15.7,21.69A3.225,3.225,0,0,1,124.031,282.264Z" transform="translate(-81.509 -254.766)" fill="url(#linear-gradient-3)"/>
          <line id="Line_127" data-name="Line 127" x1="0.221" y2="0.151" transform="translate(25.994 38.931)" fill="none"/>
          <g id="Group_8567" data-name="Group 8567" transform="translate(7.303 8.971)">
            <g transform="matrix(1, 0, 0, 1, -173.9, -180.19)" filter="url(#Rectangle_17457)">
              <rect id="Rectangle_17457-2" data-name="Rectangle 17457" width="22.625" height="5.297" rx="0.662" transform="matrix(0.83, -0.56, 0.56, 0.83, 178.35, 196.99)" fill="#fefefe"/>
            </g>
            <g id="Group_8566" data-name="Group 8566" transform="translate(0 0)">
              <g transform="matrix(1, 0, 0, 1, -173.9, -180.19)" filter="url(#Rectangle_17458)">
                <rect id="Rectangle_17458-2" data-name="Rectangle 17458" width="18.471" height="5.362" rx="0.671" transform="matrix(0.83, -0.56, 0.56, 0.83, 173.9, 190.46)" fill="#fefefe"/>
              </g>
              <g transform="matrix(1, 0, 0, 1, -173.9, -180.19)" filter="url(#Rectangle_17459)">
                <rect id="Rectangle_17459-2" data-name="Rectangle 17459" width="11.052" height="5.372" rx="0.672" transform="matrix(0.83, -0.56, 0.56, 0.83, 183.1, 203.73)" fill="#fefefe"/>
              </g>
            </g>
          </g>
          <g id="Group_8568" data-name="Group 8568" transform="translate(0 16.122)">
            <path id="Path_10424" data-name="Path 10424" d="M103.353,288.165a1.51,1.51,0,0,1,.22-.159" transform="translate(-77.618 -264.675)" fill="none"/>
            <path id="Path_10425" data-name="Path 10425" d="M118.114,294.59c-.872-.305-7.981-2.814-8.88-3.138a1.745,1.745,0,0,0-1.5.2l-.163.113-.021.017-.036.026-5.031,3.65a3.224,3.224,0,0,1-4.5-.72L82.288,273.059a3.22,3.22,0,0,1,.712-4.5l.275-.205a3.206,3.206,0,0,0-.089,3.725l14.906,21.9a3.181,3.181,0,0,0,4.428.84l5.081-3.465.013-.008.116-.083.091-.059a1.719,1.719,0,0,1,1.491-.155C110.2,291.385,117.224,294.226,118.114,294.59Z" transform="translate(-81.671 -268.349)" fill="#42454c" opacity="0.8"/>
            <line id="Line_128" data-name="Line 128" x1="0.219" y2="0.159" transform="translate(25.735 23.331)" fill="none"/>
          </g>
        </g>
      </g>
    </g>
  </g>
</svg>
