<svg xmlns="http://www.w3.org/2000/svg" xmlns:xlink="http://www.w3.org/1999/xlink" width="375" height="812" viewBox="0 0 375 812">
  <defs>
    <linearGradient id="linear-gradient" x1="0.5" x2="0.5" y2="1" gradientUnits="objectBoundingBox">
      <stop offset="0" stop-color="#1ad194"/>
      <stop offset="1" stop-color="#0dac77"/>
    </linearGradient>
    <linearGradient id="linear-gradient-5" x1="0.5" x2="0.5" y2="1" gradientUnits="objectBoundingBox">
      <stop offset="0" stop-color="#676867"/>
      <stop offset="1" stop-color="#1e201f"/>
    </linearGradient>
    <filter id="Rectangle_18781" x="94.5" y="257.5" width="187" height="195" filterUnits="userSpaceOnUse">
      <feOffset dy="5" input="SourceAlpha"/>
      <feGaussianBlur stdDeviation="4.5" result="blur"/>
      <feFlood flood-opacity="0.271"/>
      <feComposite operator="in" in2="blur"/>
      <feComposite in="SourceGraphic"/>
    </filter>
    <clipPath id="clip-proF_7">
      <rect width="375" height="812"/>
    </clipPath>
  </defs>
  <g id="proF_7" data-name="proF – 7" clip-path="url(#clip-proF_7)">
    <rect width="375" height="812" fill="#fff"/>
    <rect id="Rectangle_18820" data-name="Rectangle 18820" width="375" height="170" fill="#f6f6f6"/>
    <g id="Group_9403" data-name="Group 9403">
      <g id="time" transform="translate(-5.008 -2.833)">
        <path id="Path_2707" data-name="Path 2707" d="M29.111,27.2a3.131,3.131,0,0,1-1.975-.63,2.627,2.627,0,0,1-1-1.673H27.64a1.394,1.394,0,0,0,.542.759,1.59,1.59,0,0,0,.941.278,1.63,1.63,0,0,0,1.447-.817,4.212,4.212,0,0,0,.521-2.27h-.1a2.172,2.172,0,0,1-.873.934,2.592,2.592,0,0,1-1.319.331,2.687,2.687,0,0,1-1.995-.8,2.748,2.748,0,0,1-.788-2.015,2.813,2.813,0,0,1,.882-2.136,3.425,3.425,0,0,1,3.9-.407A3.063,3.063,0,0,1,31.941,20a5.393,5.393,0,0,1,.6,2.672,5.4,5.4,0,0,1-.909,3.331A2.982,2.982,0,0,1,29.111,27.2ZM27.968,22.45a1.624,1.624,0,0,0,1.2.466,1.65,1.65,0,0,0,1.2-.463,1.567,1.567,0,0,0,.474-1.172,1.643,1.643,0,0,0-.48-1.2,1.684,1.684,0,0,0-2.391,2.37Z" fill="#4a4b4d"/>
        <path id="Path_2708" data-name="Path 2708" d="M34.255,20.777a.95.95,0,0,1,.27-.7.969.969,0,0,1,.715-.269.97.97,0,1,1,0,1.939.969.969,0,0,1-.715-.269A.943.943,0,0,1,34.255,20.777Zm0,4.418a.943.943,0,0,1,.27-.7.965.965,0,0,1,.715-.269.97.97,0,1,1,0,1.939.966.966,0,0,1-.715-.27A.949.949,0,0,1,34.255,25.195Z" fill="#4a4b4d"/>
        <path id="Path_2709" data-name="Path 2709" d="M42.06,27V25.424H37.929V24.076q1.032-1.9,3.446-5.531h2.132v5.6H44.65v1.278H43.507V27Zm-2.73-2.906v.088h2.753V19.775H42Q40.63,21.8,39.33,24.094Z" fill="#4a4b4d"/>
        <path id="Path_2710" data-name="Path 2710" d="M48.113,27V20.068h-.1l-2.1,1.477V20.092l2.209-1.547h1.506V27Z" fill="#4a4b4d"/>
        <path id="Path_2711" data-name="Path 2711" d="M60.839,27l-.714-2.162H57.013L56.287,27h-1.53l3-8.455h1.7L62.462,27Zm-2.314-6.844-1.16,3.487h2.408l-1.148-3.487Z" fill="#4a4b4d"/>
        <path id="Path_2712" data-name="Path 2712" d="M65.322,27H63.916V18.545h1.769L68.228,24.7h.105l2.543-6.158h1.77V27H71.24V21.053h-.082L68.82,26.672H67.742L65.4,21.053h-.082Z" fill="#4a4b4d"/>
      </g>
      <g id="icons" transform="translate(-5.008 -2.833)">
        <g id="Group_864" data-name="Group 864">
          <g id="Group_863" data-name="Group 863">
            <path id="Path_2713" data-name="Path 2713" d="M325.253,24.428a.306.306,0,0,0-.009-.444,3.32,3.32,0,0,0-4.288,0,.3.3,0,0,0-.1.219.305.305,0,0,0,.09.225l1.939,1.956a.3.3,0,0,0,.429,0Zm-2.153-2.7a4.77,4.77,0,0,1,3.2,1.232.3.3,0,0,0,.419,0l1.121-1.133a.311.311,0,0,0-.005-.445,6.946,6.946,0,0,0-9.463,0,.309.309,0,0,0-.1.221.312.312,0,0,0,.091.224l1.12,1.133a.3.3,0,0,0,.421,0A4.765,4.765,0,0,1,323.1,21.725Zm0-3.682a8.382,8.382,0,0,1,5.776,2.307.3.3,0,0,0,.421,0l1.121-1.132a.307.307,0,0,0,.091-.222.3.3,0,0,0-.094-.22,10.573,10.573,0,0,0-14.632,0,.308.308,0,0,0-.094.22.313.313,0,0,0,.091.222l1.123,1.132a.3.3,0,0,0,.42,0A8.38,8.38,0,0,1,323.1,18.043Z" fill="#4a4b4d"/>
          </g>
        </g>
        <g id="Group_866" data-name="Group 866">
          <g id="Group_865" data-name="Group 865">
            <path id="Path_2714" data-name="Path 2714" d="M308.87,16.159h.97a.97.97,0,0,1,.971.97v8.409a.969.969,0,0,1-.971.97h-.97a.97.97,0,0,1-.97-.97V17.129A.97.97,0,0,1,308.87,16.159Zm-4.527,2.264h.97a.97.97,0,0,1,.971.97v6.145a.97.97,0,0,1-.971.97h-.97a.968.968,0,0,1-.97-.97V19.393A.969.969,0,0,1,304.343,18.423Zm-4.528,2.264h.971a.971.971,0,0,1,.97.97v3.881a.97.97,0,0,1-.97.97h-.971a.969.969,0,0,1-.97-.97V21.657A.97.97,0,0,1,299.815,20.687Zm-4.529,1.941h.97a.97.97,0,0,1,.97.97v1.94a.969.969,0,0,1-.97.97h-.97a.97.97,0,0,1-.971-.97V23.6A.971.971,0,0,1,295.286,22.628Z" fill="#4a4b4d"/>
          </g>
        </g>
        <g id="Group_869" data-name="Group 869">
          <g id="Group_868" data-name="Group 868">
            <g id="Group_867" data-name="Group 867">
              <path id="Path_2715" data-name="Path 2715" d="M354.154,16.806a1.618,1.618,0,0,1,1.616,1.617v5.822a1.618,1.618,0,0,1-1.616,1.617H337.98a1.618,1.618,0,0,1-1.616-1.617V18.423a1.618,1.618,0,0,1,1.616-1.617h16.174m0-.971H337.98a2.587,2.587,0,0,0-2.586,2.588v5.822a2.587,2.587,0,0,0,2.586,2.588h16.174a2.587,2.587,0,0,0,2.586-2.588V18.423a2.587,2.587,0,0,0-2.586-2.588Z" fill="#4a4b4d"/>
            </g>
            <path id="Path_2716" data-name="Path 2716" d="M357.711,19.393v3.882a2.106,2.106,0,0,0,0-3.882" fill="#4a4b4d"/>
            <path id="Rectangle_179" data-name="Rectangle 179" d="M1.295,0H16.172a1.294,1.294,0,0,1,1.294,1.294V5.822a1.295,1.295,0,0,1-1.295,1.295H1.295A1.295,1.295,0,0,1,0,5.822V1.295A1.295,1.295,0,0,1,1.295,0Z" transform="translate(337.334 17.776)" fill="#4a4b4d"/>
          </g>
        </g>
      </g>
    </g>
    <rect id="Rectangle_18821" data-name="Rectangle 18821" width="375" height="68" transform="translate(0 210)" fill="#f6f6f6"/>
    <rect id="Rectangle_183" data-name="Rectangle 183" width="119" height="5" rx="2.5" transform="translate(128 793.167)" fill="#4a4b4d"/>
    <text id="Create_a_Post" data-name="Create a Post" transform="translate(188 84)" fill="#4a4b4d" font-size="16" font-family="Poppins-Bold, Poppins" font-weight="700"><tspan x="-54.68" y="0">Create a Post</tspan></text>
    <g id="Group_9737" data-name="Group 9737" transform="translate(-22.878 3)">
      <path id="Path_10604" data-name="Path 10604" d="M17.609,10.221a.822.822,0,0,0-1.159,0L12.4,14.283a.818.818,0,0,0-.025,1.129l3.99,4a.818.818,0,1,0,1.159-1.154l-3.387-3.438,3.476-3.442A.819.819,0,0,0,17.609,10.221Z" transform="translate(37.021 60.678)" fill="#7c7d7e"/>
      <path id="Path_10605" data-name="Path 10605" d="M12.2,3.375A8.828,8.828,0,1,0,21.032,12.2,8.827,8.827,0,0,0,12.2,3.375Zm5.28,14.109A7.467,7.467,0,1,1,6.923,6.923a7.467,7.467,0,1,1,10.56,10.56Z" transform="translate(40.503 63.296)" fill="#7c7d7e"/>
    </g>
    <g id="Rectangle_18822" data-name="Rectangle 18822" transform="translate(39 130)" fill="#fff" stroke="#707070" stroke-width="0.3">
      <rect width="134" height="134" rx="15" stroke="none"/>
      <rect x="0.15" y="0.15" width="133.7" height="133.7" rx="14.85" fill="none"/>
    </g>
    <g id="Group_9820" data-name="Group 9820" transform="translate(0 -1)">
      <rect id="Rectangle_18823" data-name="Rectangle 18823" width="40" height="40" rx="5" transform="translate(188 171)" fill="url(#linear-gradient)"/>
      <g id="plus" transform="translate(198.714 183.143)">
        <line id="Line_147" data-name="Line 147" y2="19" transform="translate(9.286 -0.143)" fill="none" stroke="#fff" stroke-linecap="round" stroke-linejoin="round" stroke-width="2"/>
        <line id="Line_148" data-name="Line 148" x2="18" transform="translate(0.286 8.857)" fill="none" stroke="#fff" stroke-linecap="round" stroke-linejoin="round" stroke-width="2"/>
      </g>
    </g>
    <g id="image" transform="translate(146.549 241.189)">
      <rect id="Rectangle_6" data-name="Rectangle 6" width="11" height="11" rx="2" transform="translate(-0.549 -0.189)" stroke="#fff" stroke-linecap="round" stroke-linejoin="round" stroke-width="0.8" fill="url(#linear-gradient)"/>
      <circle id="Ellipse_5" data-name="Ellipse 5" cx="0.5" cy="0.5" r="0.5" transform="translate(3.451 3.811)" stroke="#fff" stroke-linecap="round" stroke-linejoin="round" stroke-width="0.8" fill="url(#linear-gradient)"/>
      <path id="Path_4" data-name="Path 4" d="M13.646,12.7l-2.7-2.7L5,15.944" transform="translate(-3.863 -6.034)" stroke="#fff" stroke-linecap="round" stroke-linejoin="round" stroke-width="0.8" fill="url(#linear-gradient)"/>
    </g>
    <rect id="b1" width="317" height="55" rx="10" transform="translate(29 314)" fill="#e3edf8"/>
    <circle id="Ellipse_339" data-name="Ellipse 339" cx="18" cy="18" r="18" transform="translate(38 323)" fill="#fff"/>
    <text id="Add_Location" data-name="Add Location" transform="translate(125 346)" font-size="12" font-family="Poppins-Regular, Poppins"><tspan x="-39.228" y="0">Add Location</tspan></text>
    <g id="_352521_location_on_icon" data-name="352521_location_on_icon" transform="translate(47 333)">
      <path id="Path_11235" data-name="Path 11235" d="M15.667,4A5.524,5.524,0,0,0,10,9.367c0,4.025,5.667,9.967,5.667,9.967s5.667-5.942,5.667-9.967A5.524,5.524,0,0,0,15.667,4Zm0,7.283a1.973,1.973,0,0,1-2.024-1.917,2.027,2.027,0,0,1,4.048,0A1.973,1.973,0,0,1,15.667,11.283Z" transform="translate(-6.667 -2.667)" fill="#ff4040"/>
      <path id="Path_11236" data-name="Path 11236" d="M0,0H18V18H0Z" fill="none"/>
    </g>
    <g id="Group_9821" data-name="Group 9821">
      <rect id="b1-2" data-name="b1" width="317" height="55" rx="10" transform="translate(29 381)" fill="#e3edf8"/>
      <circle id="Ellipse_339-2" data-name="Ellipse 339" cx="18" cy="18" r="18" transform="translate(38 390)" fill="#fff"/>
      <text id="Mention" transform="translate(109 413)" font-size="12" font-family="Poppins-Regular, Poppins"><tspan x="-24.066" y="0">Mention</tspan></text>
      <text id="_" data-name="@" transform="translate(56 413)" fill="#4a4b4d" font-size="16" font-family="Poppins-Bold, Poppins" font-weight="700"><tspan x="-8.64" y="0">@</tspan></text>
    </g>
    <g id="Group_9822" data-name="Group 9822" transform="translate(0 67)">
      <rect id="b1-3" data-name="b1" width="317" height="55" rx="10" transform="translate(29 381)" fill="#e3edf8"/>
      <circle id="Ellipse_339-3" data-name="Ellipse 339" cx="18" cy="18" r="18" transform="translate(38 390)" fill="#fff"/>
      <text id="Share_to" data-name="Share to" transform="translate(110 413)" font-size="12" font-family="Poppins-Regular, Poppins"><tspan x="-25.002" y="0">Share to</tspan></text>
    </g>
    <path id="_8665265_earth_asia_icon" data-name="8665265_earth_asia_icon" d="M42.387,0A10.387,10.387,0,1,0,52.773,10.387,10.386,10.386,0,0,0,42.387,0Zm3.331,11.746a.332.332,0,0,1,.191-.061H46.4a.334.334,0,0,1,.3.2l.216.517a.161.161,0,0,0,.147.1h.157a.158.158,0,0,0,.152-.117l.172-.588a.169.169,0,0,1,.157-.117h.246a.162.162,0,0,1,.162.162v.527a.328.328,0,0,0,.093.228l.482.482a.651.651,0,0,1,.192.462v.994a.658.658,0,0,1-.041.211c-.1.143-.2.279-.31.415l-.223.222a.645.645,0,0,1-.462.192h-.613a.64.64,0,0,1-.457-.193l-.531-.527a1.089,1.089,0,0,0-1.032-.284l-.86.218a.877.877,0,0,1-.162.015h-.417a.636.636,0,0,1-.457-.188l-.487-.482a.34.34,0,0,1-.093-.233V13.5a.326.326,0,0,1,.206-.3l1.592-.639a1.012,1.012,0,0,0,.231-.122Zm-3.331-9.8a8.4,8.4,0,0,1,2.186.3v.03a1.3,1.3,0,0,1-.508,1.03l-1.212.93a.322.322,0,0,0,.034.558l.437.223a.642.642,0,0,1,.359.578v3.17a.324.324,0,0,1-.324.325h-.123a.328.328,0,0,1-.29-.178.179.179,0,0,0-.314-.015l-.708,1.177a.658.658,0,0,1-.557.314h-.012a.648.648,0,0,0-.458.195l-.231.227a.329.329,0,0,0,0,.456l.231.233a.64.64,0,0,1,.192.456v.379a.648.648,0,0,1-.648.649h-.249a.642.642,0,0,1-.58-.36l-.921-1.835a.325.325,0,0,0-.519-.081l-.787.787a.654.654,0,0,1-.463.191H34.058a8.381,8.381,0,0,1,8.329-9.738Z" transform="translate(13.613 465.113)" fill="#4a4b4d"/>
    <path id="Path_10604-2" data-name="Path 10604" d="M12.414,10.221a.881.881,0,0,1,1.206,0l4.213,4.062a.8.8,0,0,1,.026,1.129l-4.152,4a.878.878,0,0,1-1.206,0,.8.8,0,0,1,0-1.159l3.524-3.438L12.41,11.38A.8.8,0,0,1,12.414,10.221Z" transform="translate(295.918 460.681)" fill="#7c7d7e"/>
    <g id="Group_9769" data-name="Group 9769" transform="translate(5 32)">
      <rect id="Rectangle_17560" data-name="Rectangle 17560" width="262" height="40" rx="18" transform="translate(52 537)" fill="url(#linear-gradient-5)"/>
      <text id="Post" transform="translate(183 563)" fill="#fff" font-size="14" font-family="Poppins-SemiBold, Poppins" font-weight="600"><tspan x="-15.253" y="0">Post</tspan></text>
    </g>
    <path id="Path_10414" data-name="Path 10414" d="M0,0H375V812H0Z" fill="#4a4b4d" opacity="0.5"/>
    <g id="Group_9825" data-name="Group 9825" transform="translate(-5 -9)">
      <g transform="matrix(1, 0, 0, 1, 5, 9)" filter="url(#Rectangle_18781)">
        <rect id="Rectangle_18781-2" data-name="Rectangle 18781" width="160" height="168" rx="12" transform="translate(108 266)" fill="#e3edf8"/>
      </g>
      <text id="Public" transform="translate(158 312.938)" fill="#4a4b4d" font-size="12" font-family="Poppins-Regular, Poppins"><tspan x="0" y="0">Public</tspan></text>
      <text id="Friends" transform="translate(158.158 346.631)" fill="#4a4b4d" font-size="12" font-family="Poppins-Regular, Poppins"><tspan x="0" y="0">Friends</tspan></text>
      <text id="Friends_of_friend" data-name="Friends of friend" transform="translate(158.158 380.367)" fill="#0dac77" font-size="12" font-family="Poppins-Regular, Poppins"><tspan x="0" y="0">Friends of friend</tspan></text>
      <text id="Only_me" data-name="Only me" transform="translate(158.158 415.23)" fill="#4a4b4d" font-size="12" font-family="Poppins-Regular, Poppins"><tspan x="0" y="0">Only me</tspan></text>
      <g id="Group_918" data-name="Group 918" transform="translate(133 332.91)">
        <path id="Path_2720" data-name="Path 2720" d="M13.047,24.183a6.372,6.372,0,0,1-6.279,0c-2.457.75-3.963,3.234-4.518,5.422H17.565C17.01,27.417,15.5,24.932,13.047,24.183Z" transform="translate(-2.25 -12.516)" fill="#4a4b4d"/>
        <path id="Path_2721" data-name="Path 2721" d="M10.655,8.44a5.516,5.516,0,1,0,5.517,5.516A5.517,5.517,0,0,0,10.655,8.44Zm0,9.717A4.263,4.263,0,0,1,6.8,15.525h7.711A4.263,4.263,0,0,1,10.655,18.157Z" transform="translate(-2.998 -8.44)" fill="#4a4b4d"/>
      </g>
      <path id="_8665265_earth_asia_icon-2" data-name="8665265_earth_asia_icon" d="M39.565,0a7.565,7.565,0,1,0,7.565,7.565A7.565,7.565,0,0,0,39.565,0Zm2.426,8.555a.242.242,0,0,1,.139-.044h.358a.243.243,0,0,1,.218.148l.157.377a.117.117,0,0,0,.107.074h.115a.115.115,0,0,0,.111-.085l.125-.429a.123.123,0,0,1,.115-.085h.179a.118.118,0,0,1,.118.118v.384a.239.239,0,0,0,.068.166l.351.351a.475.475,0,0,1,.14.336v.724a.479.479,0,0,1-.03.154c-.071.1-.149.2-.226.3l-.163.161a.47.47,0,0,1-.336.14h-.446a.466.466,0,0,1-.333-.14l-.387-.384a.794.794,0,0,0-.752-.207l-.626.159a.639.639,0,0,1-.118.011h-.3a.463.463,0,0,1-.333-.137l-.354-.351a.248.248,0,0,1-.068-.17v-.3a.238.238,0,0,1,.15-.222l1.159-.465a.737.737,0,0,0,.168-.089ZM39.565,1.419a6.118,6.118,0,0,1,1.592.217v.022a.946.946,0,0,1-.37.75l-.882.678a.234.234,0,0,0,.025.406l.319.163a.468.468,0,0,1,.261.421V6.383a.236.236,0,0,1-.236.236h-.089a.239.239,0,0,1-.211-.129.131.131,0,0,0-.229-.011l-.515.857a.479.479,0,0,1-.406.229h-.009a.472.472,0,0,0-.334.142l-.168.165a.239.239,0,0,0,0,.332l.168.17a.466.466,0,0,1,.14.332v.276a.472.472,0,0,1-.472.473h-.181a.467.467,0,0,1-.422-.262l-.671-1.337a.237.237,0,0,0-.378-.059l-.573.573a.476.476,0,0,1-.337.139H33.5a6.1,6.1,0,0,1,6.067-7.093Z" transform="translate(100.869 300.871)" fill="#4a4b4d"/>
      <g id="Icon_ionic-md-contacts" data-name="Icon ionic-md-contacts" transform="translate(130.75 364.088)">
        <g id="Group_918-2" data-name="Group 918" transform="translate(2.25 6.458)">
          <path id="Path_2720-2" data-name="Path 2720" d="M9.487,24.183a4.271,4.271,0,0,1-4.209,0A4.969,4.969,0,0,0,2.25,27.817H12.515A4.968,4.968,0,0,0,9.487,24.183Z" transform="translate(-2.25 -16.363)" fill="url(#linear-gradient)"/>
          <path id="Path_2721-2" data-name="Path 2721" d="M8.836,8.44a3.7,3.7,0,1,0,3.7,3.7A3.7,3.7,0,0,0,8.836,8.44Zm0,6.513a2.857,2.857,0,0,1-2.584-1.765H11.42A2.857,2.857,0,0,1,8.836,14.953Z" transform="translate(-3.703 -8.44)" fill="url(#linear-gradient)"/>
        </g>
        <g id="Group_919" data-name="Group 919" transform="translate(9.647 4.502)">
          <path id="Path_2722" data-name="Path 2722" d="M20.57,23.6h5.5a4.57,4.57,0,0,0-3.028-3.355,4.274,4.274,0,0,1-3.577.293,4.9,4.9,0,0,1-.977,1.219A4.742,4.742,0,0,1,20.57,23.6Z" transform="translate(-17.818 -12.425)" fill="url(#linear-gradient)"/>
          <path id="Path_2723" data-name="Path 2723" d="M19.333,9.251h3.51a2.851,2.851,0,0,1-2.584,1.756,2.656,2.656,0,0,1-.886-.158,4.485,4.485,0,0,1-.228.877,3.7,3.7,0,1,0-2-5.511A4.569,4.569,0,0,1,19.333,9.251Z" transform="translate(-17.142 -4.502)" fill="url(#linear-gradient)"/>
        </g>
      </g>
      <g id="_309054_lock_privacy_private_protect_icon" data-name="309054_lock_privacy_private_protect_icon" transform="translate(130 398.742)">
        <path id="Path_10793" data-name="Path 10793" d="M17.006,17.754V9.626A1.631,1.631,0,0,0,15.38,8H5.626A1.631,1.631,0,0,0,4,9.626v8.129A1.631,1.631,0,0,0,5.626,19.38H15.38A1.631,1.631,0,0,0,17.006,17.754ZM12.129,13.69A1.626,1.626,0,1,1,10.5,12.064,1.631,1.631,0,0,1,12.129,13.69Z" transform="translate(0 -1.123)" fill="#4a4b4d"/>
        <path id="Path_10794" data-name="Path 10794" d="M15.129,10.129V6.064A4.064,4.064,0,0,0,7,6.064v4.064" transform="translate(-0.561)" fill="none" stroke="#4a4b4d" stroke-miterlimit="10" stroke-width="2"/>
      </g>
    </g>
  </g>
</svg>
